{
  "accessors": [
    {
      "bufferView": 2,
      "componentType": 5126,
      "count": 19508,
      "max": [
        26.05415916442871,
        12.317350387573242,
        35.7817497253418
      ],
      "min": [
        -25.056739807128906,
        -28.676509857177734,
        -0.8394050002098083
      ],
      "type": "VEC3"
    },
    {
      "bufferView": 2,
      "byteOffset": 234096,
      "componentType": 5126,
      "count": 19508,
      "max": [
        0.9986435770988464,
        1.0,
        1.0
      ],
      "min": [
        -0.9986833930015564,
        -0.9997373223304749,
        -1.0
      ],
      "type": "VEC3"
    },
    {
      "bufferView": 1,
      "componentType": 5126,
      "count": 19508,
      "max": [
        0.9495049715042114,
        0.8869799971580505
      ],
      "min": [
        0.050494998693466187,
        0.11302000284194946
      ],
      "type": "VEC2"
    },
    {
      "bufferView": 0,
      "componentType": 5125,
      "count": 33171,
      "type": "SCALAR"
    },
    {
      "bufferView": 2,
      "byteOffset": 468192,
      "componentType": 5126,
      "count": 20041,
      "max": [
        26.05415916442871,
        12.317350387573242,
        35.7817497253418
      ],
      "min": [
        -25.056739807128906,
        -28.676509857177734,
        -0.8394050002098083
      ],
      "type": "VEC3"
    },
    {
      "bufferView": 2,
      "byteOffset": 708684,
      "componentType": 5126,
      "count": 20041,
      "max": [
        0.9986425042152405,
        1.0,
        1.0
      ],
      "min": [
        -0.9986843466758728,
        -1.0,
        -1.0
      ],
      "type": "VEC3"
    },
    {
      "bufferView": 1,
      "byteOffset": 156064,
      "componentType": 5126,
      "count": 20041,
      "max": [
        0.9495049715042114,
        0.8878729939460754
      ],
      "min": [
        0.050494998693466187,
        0.11212699860334396
      ],
      "type": "VEC2"
    },
    {
      "bufferView": 0,
      "byteOffset": 132684,
      "componentType": 5125,
      "count": 34521,
      "type": "SCALAR"
    }
  ],
  "asset": {
    "extras": {
      "author": "Phil_XG (https://sketchfab.com/phil_xg)",
      "license": "SKETCHFAB Standard (https://sketchfab.com/licenses)",
      "source": "https://sketchfab.com/3d-models/fluxs-pit-stop-6bb8bd116e384d9f9e7041dbb84e5e24",
      "title": "Flux's Pit Stop"
    },
    "generator": "Sketchfab-15.50.0",
    "version": "2.0"
  },
  "bufferViews": [
    {
      "buffer": 0,
      "byteLength": 270768,
      "name": "floatBufferViews",
      "target": 34963
    },
    {
      "buffer": 0,
      "byteLength": 316392,
      "byteOffset": 270768,
      "byteStride": 8,
      "name": "floatBufferViews",
      "target": 34962
    },
    {
      "buffer": 0,
      "byteLength": 949176,
      "byteOffset": 587160,
      "byteStride": 12,
      "name": "floatBufferViews",
      "target": 34962
    }
  ],
  "buffers": [
    {
      "byteLength": 1536336,
      "uri": "scene.bin"
    }
  ],
  "extensionsUsed": [
    "KHR_materials_unlit"
  ],
  "images": [
    {
      "uri": "textures/Back_baseColor.jpeg"
    },
    {
      "uri": "textures/Front_baseColor.jpeg"
    },
    {
      "uri": "textures/Front_emissive.jpeg"
    }
  ],
  "materials": [
    {
      "extensions": {
        "KHR_materials_unlit": {}
      },
      "name": "Back",
      "pbrMetallicRoughness": {
        "baseColorTexture": {
          "index": 0
        },
        "metallicFactor": 0.0
      }
    },
    {
      "emissiveFactor": [
        1.0,
        1.0,
        1.0
      ],
      "emissiveTexture": {
        "index": 2
      },
      "extensions": {
        "KHR_materials_unlit": {}
      },
      "name": "Front",
      "pbrMetallicRoughness": {
        "baseColorTexture": {
          "index": 1
        },
        "metallicFactor": 0.0
      }
    }
  ],
  "meshes": [
    {
      "name": "Object_0",
      "primitives": [
        {
          "attributes": {
            "NORMAL": 1,
            "POSITION": 0,
            "TEXCOORD_0": 2
          },
          "indices": 3,
          "material": 0,
          "mode": 4
        }
      ]
    },
    {
      "name": "Object_1",
      "primitives": [
        {
          "attributes": {
            "NORMAL": 5,
            "POSITION": 4,
            "TEXCOORD_0": 6
          },
          "indices": 7,
          "material": 1,
          "mode": 4
        }
      ]
    }
  ],
  "nodes": [
    {
      "children": [
        1
      ],
      "matrix": [
        0.038737207651138306,
        0.0,
        0.0,
        0.0,
        0.0,
        8.601387968795905e-18,
        -0.038737207651138306,
        0.0,
        0.0,
        0.038737207651138306,
        8.601387968795905e-18,
        0.0,
        0.0,
        0.0,
        0.0,
        1.0
      ],
      "name": "Sketchfab_model"
    },
    {
      "children": [
        2,
        3
      ],
      "name": "Holo_Final.obj.cleaner.materialmerger.gles"
    },
    {
      "mesh": 0,
      "name": "Object_2"
    },
    {
      "mesh": 1,
      "name": "Object_3"
    }
  ],
  "samplers": [
    {
      "magFilter": 9729,
      "minFilter": 9987,
      "wrapS": 10497,
      "wrapT": 10497
    }
  ],
  "scene": 0,
  "scenes": [
    {
      "name": "Sketchfab_Scene",
      "nodes": [
        0
      ]
    }
  ],
  "textures": [
    {
      "sampler": 0,
      "source": 0
    },
    {
      "sampler": 0,
      "source": 1
    },
    {
      "sampler": 0,
      "source": 2
    }
  ]
}
