{"accessors" : [{"bufferView" : 0, "byteOffset" : 0, "componentType" : 5123, "count" : 11880, "type" : "SCALAR", "max" : [11879], "min" : [0]}, {"bufferView" : 1, "byteOffset" : 0, "componentType" : 5126, "count" : 11880, "type" : "VEC3", "max" : [31.274995803833008, 63.38111114501953, 32.66999816894531], "min" : [-32.48699951171875, -0.3812539875507355, -31.093002319335938], "name" : "POSITION"}, {"bufferView" : 1, "byteOffset" : 12, "componentType" : 5126, "count" : 11880, "type" : "VEC3", "max" : [0.9902883172035217, 0.9900549054145813, 0.9898946285247803], "min" : [-0.9902838468551636, -0.9900266528129578, -0.9898942708969116], "name" : "NORMAL"}, {"bufferView" : 1, "byteOffset" : 24, "componentType" : 5126, "count" : 11880, "type" : "VEC2", "max" : [0.9900000095367432, 0.9900000095367432], "min" : [0.009999999776482582, 0.010499954223632812], "name" : "TEXCOORD_0"}], "asset" : {"generator" : "Aspose.3D 24.1.0", "version" : "2.0"}, "buffers" : [{"uri" : "data:application/octet-stream;base64,", "byteLength" : 403928}], "bufferViews" : [{"buffer" : 0, "byteOffset" : 0, "byteLength" : 23760, "target" : 34963}, {"buffer" : 0, "byteOffset" : 23764, "byteLength" : 380160, "byteStride" : 32, "target" : 34962}], "images" : [{"uri" : "/Users/a1234/Desktop/Crate/FG Crate1 _Crate1_albedo.jpg"}], "materials" : [{"name" : "Crate1", "pbrMetallicRoughness" : {"baseColorFactor" : [1, 1, 1, 1], "baseColorTexture" : {"index" : 0, "texCoord" : 0}, "metallicFactor" : 1, "roughnessFactor" : 1}, "emissiveFactor" : [0, 0, 0], "alphaMode" : "OPAQUE", "doubleSided" : false}], "meshes" : [{"primitives" : [{"attributes" : {"POSITION" : 1, "NORMAL" : 2, "TEXCOORD_0" : 3}, "indices" : 0, "material" : 0, "mode" : 4}], "name" : "FG_Crate1_-geom"}], "nodes" : [{"matrix" : [0.9211106094182773, -0.008461379559216496, -0.3892090058992016, 0, 0.009601488403264708, 0.9999533607224688, 0.000984170206909194, 0, 0.3891825260346863, -0.004643515375644809, 0.9211488913226411, 0, 0, 0, 0, 1], "mesh" : 0, "name" : "FG_Crate1_"}, {"children" : [0], "matrix" : [1, 0, 0, 0, 0, 0.9999999999999867, 1.629206707320911E-07, 0, 0, -1.629206707320911E-07, 0.9999999999999867, 0, 0, 0, 0, 1], "name" : "RootNode"}], "samplers" : [{"magFilter" : 9729, "minFilter" : 9729, "wrapS" : 10497, "wrapT" : 10497}], "scene" : 0, "scenes" : [{"nodes" : [1]}], "textures" : [{"sampler" : 0, "source" : 0, "name" : "base_color_texture"}]}